<svg width="224" height="56" viewBox="0 0 224 56" fill="none" xmlns="http://www.w3.org/2000/svg">
<path fill-rule="evenodd" clip-rule="evenodd" d="M0.649675 18.4292C9.56085 16.825 18.9128 20.8398 23.7006 29.1326C28.4884 37.4252 27.2894 47.5315 21.4448 54.4467C23.8892 54.0066 26.3005 53.1438 28.5753 51.8304C39.1429 45.7292 42.7636 32.2165 36.6624 21.6489C30.5612 11.0814 17.0485 7.46066 6.48093 13.5618C4.20601 14.8753 2.25303 16.5322 0.649675 18.4292Z" fill="#131416"/>
<path fill-rule="evenodd" clip-rule="evenodd" d="M24.6974 11.3836C31.0714 10.2362 37.7607 13.108 41.1854 19.0398C44.6101 24.9715 43.7525 32.2006 39.5718 37.1471C41.3204 36.8323 43.0453 36.2151 44.6726 35.2756C52.2316 30.9114 54.8215 21.2457 50.4573 13.6867C46.0931 6.12767 36.4275 3.53776 28.8684 7.90196C27.2412 8.84145 25.8442 10.0266 24.6974 11.3836Z" fill="#FFD938"/>
<path d="M83.285 26.4887V30.3794H69.0453V26.4887H83.285ZM72.7025 28.434L71.4316 36.2412L69.2528 33.8031H84.1409V38.1606H66.0625L67.5409 28.434L66.0625 18.7075H84.0112V23.065H69.2528L71.4316 20.6269L72.7025 28.434Z" fill="#131416"/>
<path d="M98.3377 35.7484H96.0552L103.551 18.7075H109.231L100.179 38.1606H94.0839L85.0317 18.7075H90.7898L98.3377 35.7484Z" fill="#131416"/>
<path d="M120.558 38.5756C118.258 38.5756 116.235 38.152 114.488 37.3047C112.759 36.4574 111.41 35.2729 110.442 33.7512C109.491 32.2296 109.015 30.4572 109.015 28.434C109.015 26.4109 109.491 24.6385 110.442 23.1169C111.41 21.5952 112.759 20.4107 114.488 19.5634C116.235 18.7161 118.258 18.2925 120.558 18.2925C122.875 18.2925 124.898 18.7161 126.627 19.5634C128.356 20.4107 129.705 21.5952 130.673 23.1169C131.642 24.6385 132.126 26.4109 132.126 28.434C132.126 30.4572 131.642 32.2296 130.673 33.7512C129.705 35.2729 128.356 36.4574 126.627 37.3047C124.898 38.152 122.875 38.5756 120.558 38.5756ZM120.558 33.7772C121.82 33.7772 122.909 33.561 123.826 33.1287C124.742 32.6964 125.442 32.0826 125.927 31.2872C126.428 30.4917 126.679 29.5407 126.679 28.434C126.679 27.3274 126.428 26.3763 125.927 25.5809C125.442 24.7855 124.742 24.1716 123.826 23.7394C122.909 23.3071 121.82 23.0909 120.558 23.0909C119.313 23.0909 118.232 23.3071 117.315 23.7394C116.399 24.1716 115.69 24.7855 115.189 25.5809C114.687 26.3763 114.436 27.3274 114.436 28.434C114.436 29.5407 114.687 30.4917 115.189 31.2872C115.69 32.0826 116.399 32.6964 117.315 33.1287C118.232 33.561 119.313 33.7772 120.558 33.7772Z" fill="#131416"/>
<path d="M156.503 30.0162C156.313 31.7281 155.725 33.2325 154.739 34.5294C153.754 35.8089 152.457 36.8032 150.849 37.5122C149.258 38.2211 147.425 38.5756 145.35 38.5756C143.085 38.5756 141.105 38.152 139.41 37.3047C137.715 36.4574 136.393 35.2729 135.442 33.7512C134.508 32.2296 134.041 30.4572 134.041 28.434C134.041 26.4109 134.508 24.6385 135.442 23.1169C136.393 21.5952 137.715 20.4107 139.41 19.5634C141.105 18.7161 143.085 18.2925 145.35 18.2925C147.425 18.2925 149.258 18.647 150.849 19.3559C152.457 20.0649 153.754 21.0678 154.739 22.3647C155.725 23.6442 156.313 25.14 156.503 26.8519H151.108C150.935 26.0219 150.598 25.3215 150.096 24.7509C149.595 24.163 148.938 23.7134 148.125 23.4022C147.33 23.0909 146.405 22.9353 145.35 22.9353C144.139 22.9353 143.093 23.1601 142.211 23.6097C141.329 24.042 140.655 24.6731 140.188 25.5031C139.721 26.3158 139.488 27.2928 139.488 28.434C139.488 29.5753 139.721 30.5609 140.188 31.3909C140.655 32.2036 141.329 32.8348 142.211 33.2844C143.093 33.7166 144.139 33.9328 145.35 33.9328C146.405 33.9328 147.33 33.7858 148.125 33.4918C148.938 33.1979 149.595 32.757 150.096 32.169C150.598 31.5811 150.935 30.8635 151.108 30.0162H156.503Z" fill="#131416"/>
<path d="M161.86 34.4256V30.094H175.27V34.4256H161.86ZM172.209 18.7075L181.054 38.1606H175.322L167.904 20.99H169.46L162.016 38.1606H156.284L165.129 18.7075H172.209Z" fill="#131416"/>
<path d="M186.606 27.215H193.687C194.551 27.215 195.225 27.0161 195.71 26.6184C196.194 26.2207 196.436 25.6674 196.436 24.9584C196.436 24.2322 196.194 23.6788 195.71 23.2984C195.225 22.9007 194.551 22.7019 193.687 22.7019H185.853L188.266 20.134V38.1606H182.897V18.7075H194.439C195.926 18.7075 197.223 18.9755 198.329 19.5115C199.436 20.0303 200.301 20.7565 200.923 21.6903C201.546 22.6068 201.857 23.6961 201.857 24.9584C201.857 26.1861 201.546 27.2669 200.923 28.2006C200.301 29.1344 199.436 29.8606 198.329 30.3794C197.223 30.8981 195.926 31.1575 194.439 31.1575H186.606V27.215ZM189.511 29.0565H195.554L202.531 38.1606H196.306L189.511 29.0565Z" fill="#131416"/>
<path d="M203.95 31.78H209.423C209.509 32.316 209.76 32.7829 210.175 33.1806C210.59 33.5783 211.143 33.8896 211.835 34.1144C212.544 34.3218 213.374 34.4256 214.325 34.4256C215.639 34.4256 216.677 34.2613 217.438 33.9328C218.198 33.587 218.579 33.0855 218.579 32.4284C218.579 31.927 218.363 31.5379 217.93 31.2612C217.498 30.9846 216.668 30.7857 215.44 30.6647L211.809 30.3275C209.129 30.0854 207.184 29.4802 205.973 28.5119C204.763 27.5262 204.158 26.2034 204.158 24.5434C204.158 23.1947 204.547 22.0534 205.325 21.1197C206.12 20.1859 207.227 19.4856 208.645 19.0187C210.08 18.5346 211.749 18.2925 213.651 18.2925C215.518 18.2925 217.178 18.5605 218.631 19.0965C220.083 19.6153 221.233 20.3588 222.08 21.3272C222.945 22.2955 223.412 23.4195 223.481 24.699H218.034C217.965 24.2322 217.74 23.8345 217.36 23.5059C216.997 23.1601 216.495 22.9007 215.855 22.7278C215.216 22.5376 214.446 22.4425 213.547 22.4425C212.337 22.4425 211.377 22.6068 210.668 22.9353C209.959 23.2465 209.604 23.7134 209.604 24.3359C209.604 24.7855 209.812 25.1486 210.227 25.4253C210.659 25.702 211.429 25.8922 212.535 25.9959L216.4 26.385C218.25 26.5579 219.729 26.8605 220.835 27.2928C221.942 27.7078 222.746 28.2871 223.248 29.0306C223.749 29.7741 224 30.6992 224 31.8059C224 33.172 223.593 34.3651 222.781 35.3853C221.968 36.3882 220.827 37.175 219.357 37.7456C217.887 38.2989 216.175 38.5756 214.221 38.5756C212.215 38.5756 210.443 38.2989 208.904 37.7456C207.382 37.175 206.189 36.3796 205.325 35.3594C204.46 34.3218 204.002 33.1287 203.95 31.78Z" fill="#131416"/>
</svg>
